<svg width="600" height="600" viewBox="0 0 600 600" fill="none" xmlns="http://www.w3.org/2000/svg">
<rect width="600" height="600" fill="#5F0080"/>
<g clip-path="url(#clip0_738_2854)">
<path d="M434.77 174.049C441.201 170.557 450.227 169.548 455.806 174.719C461.385 179.891 460.044 187.557 455.806 199.623C455.806 199.623 446.372 225.11 436.657 251.412L434.162 258.182C425.298 282.189 416.849 305.112 415.815 308.096C406.425 334.705 428.144 333.934 441.038 307.143C448.303 292.137 457.611 267.296 457.611 267.296C460.896 257.498 461.886 251.6 459.862 249.569C459.191 248.861 460.144 247.989 460.99 247.544C475.213 240.342 490.012 247.093 481.901 268.292L481.563 269.157C479.137 275.288 464.764 311.362 464.764 311.362C460.526 321.767 461.034 331.646 467.384 331.646C471.684 331.621 476.535 329.233 481.826 324.826C493.222 315.399 502.022 297.797 505.188 290.639C506.63 287.455 512.001 275.47 516.258 263.303C517.737 259.134 518.571 254.778 518.734 250.359C518.624 249.813 518.682 249.246 518.899 248.733C519.116 248.22 519.482 247.784 519.95 247.482C523.173 245.765 526.766 244.861 530.418 244.849C532.187 244.816 533.94 245.199 535.535 245.966C537.13 246.734 538.522 247.865 539.601 249.268C542.378 253.017 543.149 259.166 540.246 266.869C539.494 268.875 516.584 329.289 516.584 329.289V329.452C529.377 321.786 540.842 321.222 547.63 324.099L547.612 324.017C556.983 328.073 560.086 339.312 553.491 346.326C552.846 347.016 551.222 346.853 551.222 345.762C550.633 337.908 535.445 323.855 512.929 339.024L512.02 341.437L505.326 359.038C488.903 403.029 471.458 435.11 446.31 427.99C429.461 423.226 431.41 399.112 449.538 379.16C462.091 365.771 475.695 353.408 490.219 342.189C490.645 341.011 491.034 339.995 491.398 338.986C493.14 334.097 494.475 329.997 496.362 324.788L497.359 321.542C496.243 322.795 494.237 325.133 492.896 326.631C488.433 331.646 477.263 343.913 459.492 340.465L458.025 340.14C445.175 336.955 441.677 327.691 441.383 319.598C427.956 336.247 414.11 341.074 404.983 340.848C392.772 340.547 383.809 331.358 389.77 313.957C396.402 294.488 424.245 217.851 432.363 194.859C435.403 184.955 436.537 178.687 433.516 176.217C432.745 175.572 433.842 174.556 434.77 174.049ZM487.198 354.438C480.284 359.954 452.559 382.833 444.874 401.08C441.709 408.583 442.517 414.55 447.933 415.077C460.219 416.293 473.082 391.145 486.972 355.453L487.198 354.438ZM143.47 201.548C142.924 203.629 135.202 225.743 126.539 250.121L125.229 253.794L123.913 257.486L122.565 261.272C151.97 254.233 204.454 220.089 210.54 198.056C211.293 197.047 212.358 196.677 214.088 197.837C217.191 199.905 218.388 205.077 217.191 209.859C212.402 228.902 176.974 255.875 145.864 269.747C149.7 280.008 162.676 309.03 172.229 326.857C182.653 346.408 193.666 355.534 210.76 356.55C219.912 357.083 229.652 353.748 235.162 348.903L236.09 348.025L236.009 348.213C237.225 346.934 239.212 348.696 238.303 350.238C234.817 355.435 230.182 359.76 224.755 362.876C219.328 365.993 213.257 367.818 207.011 368.209C167.239 370.886 152.013 343.951 123.618 277.356C121.324 278.146 118.547 279.162 115.751 280.177C115.281 281.349 102.776 315.543 102.4 316.677C96.4826 334.667 96.1002 344.521 100.156 347.361C101.065 347.925 100.62 349.448 99.04 349.956C83.2001 354.945 68.62 345.593 76.7312 322.112C84.0087 301.326 112.398 220.691 120.07 199.09C122.747 190.979 121.305 185.77 116.986 184.636C96.3196 179.157 48.4988 222.841 55.3563 263.177C56.5473 270.198 61.4992 274.128 63.994 273.602C64.1299 273.574 64.2705 273.582 64.403 273.622C64.5355 273.663 64.6557 273.736 64.7528 273.835C64.8498 273.934 64.9207 274.056 64.959 274.189C64.9972 274.322 65.0017 274.463 64.9719 274.598C64.2772 276.977 62.6758 278.989 60.5127 280.198C58.3496 281.408 55.7978 281.72 53.4069 281.067C46.073 279.462 43.6722 271.596 43.271 267.54C39.2343 225.793 81.539 175.71 120.659 171.635C135.565 170.068 149.55 177.653 143.47 201.548ZM294.159 263.685L293.783 264.983L276.044 316.132C274.139 321.46 275.417 327.02 279.185 328.054C290.198 331.076 304.433 314.609 311.347 298.386C314.671 290.51 317.756 282.535 320.599 274.473C324.247 264.174 327.532 254.521 325.507 249.976C325.037 248.923 325.789 248.372 326.905 247.783C330.071 246.184 340.858 242.611 346.594 248.209C350.95 252.434 350.411 259.31 346.406 269.753L345.804 271.27L347.183 269.559C364.126 248.873 377.221 242.655 388.322 247.012L389.243 247.4C404.168 254.132 396.427 280.089 375.979 281.75C374.726 281.857 373.748 280.961 374.989 279.199C377.465 275.407 377.221 267.233 370 266.525C362.778 265.816 352.26 274.091 344.688 284.352C337.893 293.441 330.898 308.867 323.865 329.941C322.16 335.068 322.969 336.285 323.175 336.629C323.224 336.72 323.249 336.821 323.249 336.924C323.249 337.027 323.224 337.128 323.175 337.219C322.279 338.923 317.126 340.954 312.143 340.954C301.957 340.911 297.783 335.031 299.813 325.679C288.23 336.736 276.552 342.064 266.247 341.136C263.98 340.939 261.782 340.255 259.803 339.132C257.824 338.008 256.111 336.47 254.78 334.624C253.45 332.777 252.533 330.666 252.093 328.433C251.653 326.2 251.7 323.899 252.231 321.686C243.292 333.025 230.029 342.17 216.52 340.911C203.012 339.657 194.581 330.468 198.957 310.898C202.655 294.613 219.89 253.794 240.453 240.085C249.855 233.817 260.296 234.933 262.392 233.817C271.794 236.951 273.193 239.786 269.958 249.154C256.123 249.487 246.721 258.89 238.303 269.559C226.384 282.006 219.491 302.888 218.514 305.902C213.894 320.238 220.802 329.151 227.352 329.509C233.902 329.885 242.584 323.491 248.79 313.819C259.822 297.998 264.968 278.184 269.958 264.412C271.236 260.902 274.928 252.622 269.958 249.154C268.597 249.754 261.088 234.531 262.392 233.817C274.928 230.683 299.694 243.326 294.159 263.685Z" fill="white"/>
</g>
<defs>
<clipPath id="clip0_738_2854">
<rect width="514" height="263.268" fill="white" transform="translate(43 168)"/>
</clipPath>
</defs>
</svg>
