<svg width="36" height="36" viewBox="0 0 36 36" fill="none" xmlns="http://www.w3.org/2000/svg">
<path fill-rule="evenodd" clip-rule="evenodd" d="M28.9269 8.89319C28.3269 8.29285 27.6146 7.81661 26.8305 7.49168C26.0465 7.16675 25.2061 6.99951 24.3574 6.99951C23.5086 6.99951 22.6682 7.16675 21.8842 7.49168C21.1001 7.81661 20.3878 8.29285 19.7879 8.89319L17.9589 10.7212L16.1319 8.89319C14.9201 7.68115 13.2765 7.00013 11.5626 6.99994C9.84867 6.99976 8.2049 7.68042 6.99286 8.89219C5.78082 10.104 5.0998 11.7476 5.09961 13.4615C5.09942 15.1754 5.78008 16.8192 6.99186 18.0312L8.81986 19.8602L17.2519 28.2942C17.4394 28.4817 17.6937 28.587 17.9589 28.587C18.224 28.587 18.4783 28.4817 18.6659 28.2942L27.0989 19.8602L28.9269 18.0322C29.5271 17.4323 30.0032 16.72 30.328 15.936C30.6528 15.1521 30.82 14.3118 30.82 13.4632C30.82 12.6146 30.6528 11.7743 30.328 10.9903C30.0032 10.2064 29.5271 9.4941 28.9269 8.89419V8.89319Z" stroke="#5F0080" stroke-width="1.7" stroke-linecap="round"/>
</svg>
