<svg width="82" height="42" viewBox="0 0 82 42" fill="none" xmlns="http://www.w3.org/2000/svg">
<g clip-path="url(#clip0_549_764)">
<path d="M62.4998 0.964947C63.5258 0.407947 64.9658 0.246947 65.8558 1.07195C66.7458 1.89695 66.5318 3.11995 65.8558 5.04495C65.8558 5.04495 64.3508 9.11095 62.8008 13.3069L62.4028 14.3869C60.9888 18.2169 59.6408 21.8739 59.4758 22.3499C57.9778 26.5949 61.4428 26.4719 63.4998 22.1979C64.6588 19.8039 66.1437 15.8409 66.1437 15.8409C66.6677 14.2779 66.8257 13.3369 66.5027 13.0129C66.3957 12.8999 66.5477 12.7609 66.6827 12.6899C68.9517 11.5409 71.3127 12.6179 70.0187 15.9999L69.9647 16.1379C69.5777 17.1159 67.2848 22.8709 67.2848 22.8709C66.6087 24.5309 66.6898 26.1069 67.7028 26.1069C68.3887 26.1029 69.1628 25.7219 70.0068 25.0189C71.8248 23.5149 73.2288 20.7069 73.7337 19.5649C73.9638 19.0569 74.8207 17.1449 75.4997 15.2039C75.7357 14.5389 75.8687 13.8439 75.8947 13.1389C75.8773 13.0518 75.8865 12.9614 75.9211 12.8796C75.9557 12.7977 76.0141 12.7282 76.0887 12.6799C76.6029 12.4061 77.1762 12.2619 77.7588 12.2599C78.0411 12.2547 78.3207 12.3157 78.5751 12.4382C78.8296 12.5606 79.0517 12.741 79.2237 12.9649C79.6667 13.5629 79.7897 14.5439 79.3268 15.7729C79.2067 16.0929 75.5518 25.7309 75.5518 25.7309V25.7569C77.5928 24.5339 79.4217 24.4439 80.5047 24.9029L80.5017 24.8899C81.9967 25.5369 82.4918 27.3299 81.4398 28.4489C81.3368 28.5589 81.0778 28.5329 81.0778 28.3589C80.9837 27.1059 78.5608 24.8639 74.9688 27.2839L74.8237 27.6689L73.7557 30.4769C71.1357 37.4949 68.3528 42.6129 64.3408 41.4769C61.6528 40.7169 61.9638 36.8699 64.8558 33.6869C66.8584 31.551 69.0286 29.5787 71.3457 27.7889C71.4137 27.6009 71.4757 27.4389 71.5337 27.2779C71.8117 26.4979 72.0247 25.8439 72.3257 25.0129L72.4847 24.4949C72.3067 24.6949 71.9867 25.0679 71.7728 25.3069C71.0608 26.1069 69.2787 28.0639 66.4437 27.5139L66.2097 27.4619C64.1597 26.9539 63.6018 25.4759 63.5548 24.1849C61.4128 26.8409 59.2038 27.6109 57.7478 27.5749C55.7998 27.5269 54.3698 26.0609 55.3208 23.2849C56.3787 20.1789 60.8208 7.95295 62.1158 4.28495C62.6008 2.70495 62.7817 1.70495 62.2998 1.31095C62.1768 1.20795 62.3518 1.04595 62.4998 0.964947ZM70.8637 29.7429C69.7607 30.6229 65.3377 34.2729 64.1117 37.1839C63.6067 38.3809 63.7357 39.3329 64.5997 39.4169C66.5597 39.6109 68.6117 35.5989 70.8278 29.9049L70.8637 29.7429ZM16.0278 5.35195C15.9408 5.68395 14.7087 9.21195 13.3267 13.1009L13.1178 13.6869L12.9078 14.2759L12.6927 14.8799C17.3838 13.7569 25.7568 8.30995 26.7278 4.79495C26.8478 4.63395 27.0178 4.57495 27.2938 4.75995C27.7888 5.08995 27.9797 5.91495 27.7887 6.67795C27.0247 9.71595 21.3727 14.0189 16.4097 16.2319C17.0217 17.8689 19.0917 22.4989 20.6157 25.3429C22.2787 28.4619 24.0358 29.9179 26.7628 30.0799C28.2228 30.1649 29.7768 29.6329 30.6558 28.8599L30.8038 28.7199L30.7908 28.7499C30.9848 28.5459 31.3018 28.8269 31.1567 29.0729C30.6007 29.9021 29.8612 30.592 28.9954 31.0892C28.1297 31.5864 27.1611 31.8775 26.1648 31.9399C19.8198 32.3669 17.3908 28.0699 12.8608 17.4459C12.4948 17.5719 12.0518 17.7339 11.6058 17.8959C11.5308 18.0829 9.53575 23.5379 9.47575 23.7189C8.53175 26.5889 8.47075 28.1609 9.11775 28.6139C9.26275 28.7039 9.19175 28.9469 8.93975 29.0279C6.41275 29.8239 4.08675 28.3319 5.38075 24.5859C6.54175 21.2699 11.0708 8.40595 12.2948 4.95995C12.7218 3.66595 12.4918 2.83495 11.8028 2.65395C8.50575 1.77995 0.876751 8.74895 1.97075 15.1839C2.16075 16.3039 2.95075 16.9309 3.34875 16.8469C3.37043 16.8426 3.39286 16.8437 3.41399 16.8502C3.43513 16.8568 3.45431 16.8684 3.4698 16.8842C3.48528 16.9 3.49659 16.9194 3.50269 16.9407C3.5088 16.9619 3.5095 16.9844 3.50475 17.0059C3.39392 17.3855 3.13845 17.7063 2.79336 17.8994C2.44827 18.0924 2.04118 18.1422 1.65975 18.0379C0.489751 17.7819 0.106751 16.5269 0.0427506 15.8799C-0.601249 9.21995 6.14775 1.22995 12.3888 0.579947C14.7668 0.329947 16.9977 1.53995 16.0278 5.35195ZM40.0678 15.2649L40.0078 15.4719L37.1778 23.6319C36.8738 24.4819 37.0778 25.3689 37.6788 25.5339C39.4358 26.0159 41.7068 23.3889 42.8098 20.8009C43.34 19.5444 43.8322 18.2722 44.2858 16.9859C44.8678 15.3429 45.3918 13.8029 45.0688 13.0779C44.9938 12.9099 45.1138 12.8219 45.2918 12.7279C45.7968 12.4729 47.5177 11.9029 48.4328 12.7959C49.1278 13.4699 49.0418 14.5669 48.4028 16.2329L48.3068 16.4749L48.5268 16.2019C51.2298 12.9019 53.3188 11.9099 55.0898 12.6049L55.2368 12.6669C57.6178 13.7409 56.3828 17.8819 53.1208 18.1469C52.9207 18.1639 52.7648 18.0209 52.9628 17.7399C53.3578 17.1349 53.3188 15.8309 52.1668 15.7179C51.0148 15.6049 49.3368 16.9249 48.1288 18.5619C47.0448 20.0119 45.9288 22.4729 44.8068 25.8349C44.5348 26.6529 44.6637 26.8469 44.6968 26.9019C44.7045 26.9164 44.7085 26.9326 44.7085 26.9489C44.7085 26.9653 44.7045 26.9815 44.6968 26.9959C44.5537 27.2679 43.7318 27.5919 42.9368 27.5919C41.3118 27.5849 40.6458 26.6469 40.9698 25.1549C39.1218 26.9189 37.2588 27.7689 35.6148 27.6209C35.2531 27.5895 34.9024 27.4804 34.5867 27.3011C34.271 27.1218 33.9977 26.8766 33.7855 26.582C33.5732 26.2874 33.427 25.9506 33.3568 25.5944C33.2866 25.2382 33.2941 24.871 33.3788 24.5179C31.9528 26.3269 29.8368 27.7859 27.6817 27.5849C25.5267 27.3849 24.1817 25.9189 24.8797 22.7969C25.4697 20.1989 28.2192 13.6869 31.4998 11.4999C32.9998 10.4999 34.6654 10.678 34.9998 10.4999C36.4998 10.9999 36.7229 11.4522 36.2068 12.9468C33.9998 12.9999 32.4998 14.4999 31.1567 16.2019C29.2554 18.1878 28.1556 21.5192 27.9998 21.9999C27.2628 24.2869 28.3647 25.7089 29.4097 25.7659C30.4548 25.8259 31.8398 24.8059 32.8298 23.2629C34.5898 20.7389 35.4108 17.5779 36.2068 15.3809C36.4108 14.8209 36.9998 13.4999 36.2068 12.9468C35.9897 13.0424 34.7918 10.6139 34.9998 10.4999C36.9998 9.99994 40.9508 12.0169 40.0678 15.2649Z" fill="#5F0080"/>
</g>
<defs>
<clipPath id="clip0_549_764">
<rect width="82" height="42" fill="white"/>
</clipPath>
</defs>
</svg>
