<svg width="37" height="18" viewBox="0 0 37 18" fill="none" xmlns="http://www.w3.org/2000/svg">
<rect width="37" height="18" rx="1" fill="#E1E1E1"/>
<path d="M13.1224 10.0696C10.8425 10.0754 9.37144 10.8022 9.37144 12.0623C9.37144 13.293 10.8425 14.0315 13.1224 14.0315C15.4257 14.0315 16.8792 13.293 16.885 12.0623C16.8792 10.8022 15.4257 10.0754 13.1224 10.0696ZM8.37509 9.30767H17.9869V8.25272H13.392V6.33036H12.1026V8.25272H8.37509V9.30767ZM9.47693 4.98237H15.5136C15.5136 5.75014 15.496 6.50033 15.2323 7.52598L16.5217 7.64319C16.8206 6.55894 16.8206 5.66809 16.8147 4.82999V3.95086H9.47693V4.98237ZM10.6843 12.0623C10.6725 11.4176 11.5927 11.0542 13.1224 11.0542C14.6579 11.0542 15.5839 11.4176 15.5956 12.0623C15.5839 12.6835 14.6579 13.0234 13.1224 13.0234C11.5927 13.0234 10.6725 12.6835 10.6843 12.0623ZM22.7224 6.4593V5.56845H25.0433V4.49006H19.0653V5.56845H21.3979V6.4593C21.392 8.25858 20.3488 10.2337 18.6785 11.0073L19.4286 12.0271C20.6653 11.441 21.5971 10.222 22.0836 8.76847C22.57 10.1165 23.4843 11.2242 24.7386 11.7692L25.4536 10.7377C23.7422 10.0227 22.7224 8.19411 22.7224 6.4593ZM26.2272 14.0432H27.54V3.44683H26.2272V14.0432Z" fill="#333333"/>
</svg>
