<svg width="36" height="36" viewBox="0 0 36 36" fill="none" xmlns="http://www.w3.org/2000/svg">
<path d="M26.0806 26.0811L21.9606 21.9611M16.4666 23.3341C17.3684 23.3341 18.2614 23.1565 19.0945 22.8114C19.9276 22.4663 20.6847 21.9605 21.3223 21.3228C21.96 20.6851 22.4658 19.9281 22.8109 19.095C23.156 18.2618 23.3336 17.3689 23.3336 16.4671C23.3336 15.5653 23.156 14.6724 22.8109 13.8392C22.4658 13.0061 21.96 12.2491 21.3223 11.6114C20.6847 10.9737 19.9276 10.4679 19.0945 10.1228C18.2614 9.77772 17.3684 9.6001 16.4666 9.6001C14.6454 9.6001 12.8987 10.3236 11.6109 11.6114C10.3231 12.8992 9.59961 14.6459 9.59961 16.4671C9.59961 18.2883 10.3231 20.035 11.6109 21.3228C12.8987 22.6106 14.6454 23.3341 16.4666 23.3341V23.3341Z" stroke="#333333" stroke-width="1.7" stroke-linecap="round"/>
</svg>
