<svg width="19" height="19" viewBox="0 0 19 19" fill="none" xmlns="http://www.w3.org/2000/svg">
<path d="M18.0806 18.081L13.9606 13.961M8.46661 15.334C9.3684 15.334 10.2614 15.1564 11.0945 14.8113C11.9276 14.4662 12.6847 13.9603 13.3223 13.3227C13.96 12.685 14.4658 11.928 14.8109 11.0949C15.156 10.2617 15.3336 9.36876 15.3336 8.46697C15.3336 7.56519 15.156 6.67223 14.8109 5.83909C14.4658 5.00595 13.96 4.24893 13.3223 3.61127C12.6847 2.97361 11.9276 2.46779 11.0945 2.12269C10.2614 1.77759 9.3684 1.59998 8.46661 1.59998C6.64537 1.59998 4.89872 2.32346 3.61091 3.61127C2.32309 4.89909 1.59961 6.64573 1.59961 8.46697C1.59961 10.2882 2.32309 12.0349 3.61091 13.3227C4.89872 14.6105 6.64537 15.334 8.46661 15.334V15.334Z" stroke="#5F0080" stroke-width="1.7" stroke-linecap="round"/>
</svg>
